# MagicaVoxel @ Ephtracy

# group
o 

# material
mtllib Blue Lanturn Boy.mtl
usemtl palette

# normals
vn -1 0 0
vn 1 0 0
vn 0 0 1
vn 0 0 -1
vn 0 -1 0
vn 0 1 0

# texcoords
vt 0.0214844 0.5
vt 0.0332031 0.5
vt 0.0605469 0.5
vt 0.0683594 0.5
vt 0.181641 0.5
vt 0.369141 0.5
vt 0.666016 0.5
vt 0.775391 0.5
vt 0.994141 0.5

# verts
v -0.5 0.1 0
v -0.5 0.1 -0.1
v -0.5 0.2 0
v -0.5 0.2 -0.1
v -0.5 0.4 0
v -0.5 0.4 -0.1
v -0.5 0.5 0
v -0.5 0.5 -0.1
v -0.4 0.1 0.1
v -0.4 0.1 0
v -0.4 0.1 -0.1
v -0.4 0.1 -0.2
v -0.4 0.2 0.1
v -0.4 0.2 0
v -0.4 0.2 -0.1
v -0.4 0.2 -0.2
v -0.4 0.4 0.1
v -0.4 0.4 0
v -0.4 0.4 -0.1
v -0.4 0.4 -0.2
v -0.4 0.5 0.1
v -0.4 0.5 0
v -0.4 0.5 -0.1
v -0.4 0.5 -0.2
v -0.4 0.6 0
v -0.4 0.6 -0.1
v -0.3 0.1 0
v -0.3 0.1 -0.1
v -0.3 0.2 0
v -0.3 0.2 -0.1
v -0.3 0.4 0
v -0.3 0.4 -0.1
v -0.2 0.8 0.2
v -0.2 0.8 -0.2
v -0.2 0.9 -0.2
v -0.2 0.9 -0.3
v -0.2 1 0
v -0.2 1 -0.1
v -0.2 1 -0.2
v -0.2 1 -0.3
v -0.2 1.1 0.2
v -0.2 1.1 0
v -0.2 1.1 -0.1
v -0.2 1.1 -0.2
v -0.2 1.2 0
v -0.2 1.2 -0.1
v -0.1 0 0.1
v -0.1 0 -0.1
v -0.1 0.1 0.1
v -0.1 0.1 0
v -0.1 0.2 0
v -0.1 0.2 -0.1
v -0.1 0.3 0.1
v -0.1 0.3 0
v -0.1 0.3 -0.1
v -0.1 0.3 -0.2
v -0.1 0.4 0.1
v -0.1 0.4 -0.2
v -0.1 0.5 0.1
v -0.1 0.5 0
v -0.1 0.5 -0.1
v -0.1 0.5 -0.2
v -0.1 0.6 0.1
v -0.1 0.6 0
v -0.1 0.6 -0.1
v -0.1 0.6 -0.2
v -0.1 0.7 0.1
v -0.1 0.7 -0.1
v -0.1 0.7 -0.2
v -0.1 0.8 0.1
v -0.1 0.8 -0.1
v -0.1 0.8 -0.2
v -0.1 0.8 -0.3
v -0.1 0.9 -0.2
v -0.1 0.9 -0.3
v -0.1 1 0
v -0.1 1 -0.1
v -0.1 1 -0.2
v -0.1 1 -0.3
v -0.1 1.1 0.2
v -0.1 1.1 0
v -0.1 1.1 -0.1
v -0.1 1.1 -0.2
v -0.1 1.1 -0.3
v -0.1 1.2 0.2
v -0.1 1.2 0.1
v -0.1 1.2 0
v -0.1 1.2 -0.1
v -0.1 1.3 0.1
v -0.1 1.3 -0.2
v 0 0.9 0.2
v 0 0.9 0.1
v 0 1 0.1
v 0 1.1 0.2
v 0 1.1 0.1
v 0 1.1 -0.2
v 0 1.1 -0.3
v 0 1.2 -0.2
v 0 1.2 -0.3
v 0.2 0 0.1
v 0.2 0 -0.1
v 0.2 0.1 0.1
v 0.2 0.1 0
v 0.2 0.2 0
v 0.2 0.2 -0.1
v 0.2 0.3 0
v 0.2 0.3 -0.1
v 0.2 0.8 -0.2
v 0.2 0.8 -0.3
v 0.2 0.9 -0.2
v 0.2 0.9 -0.3
v 0.3 0.8 0.2
v 0.3 0.8 0.1
v 0.3 0.9 0.1
v 0.3 1 0.1
v 0.3 1.1 0.2
v 0.3 1.1 0.1
v 0.4 0.3 0
v 0.4 0.3 -0.1
v 0.4 0.5 0
v 0.4 0.5 -0.1
v -0.4 0.1 0
v -0.4 0.1 -0.1
v -0.4 0.2 0
v -0.4 0.2 -0.1
v -0.4 0.4 0
v -0.4 0.4 -0.1
v -0.3 0.1 0.1
v -0.3 0.1 0
v -0.3 0.1 -0.1
v -0.3 0.1 -0.2
v -0.3 0.2 0.1
v -0.3 0.2 0
v -0.3 0.2 -0.1
v -0.3 0.2 -0.2
v -0.3 0.4 0.1
v -0.3 0.4 0
v -0.3 0.4 -0.1
v -0.3 0.4 -0.2
v -0.3 0.5 0.1
v -0.3 0.5 0
v -0.3 0.5 -0.1
v -0.3 0.5 -0.2
v -0.2 0.1 0
v -0.2 0.1 -0.1
v -0.2 0.2 0
v -0.2 0.2 -0.1
v -0.2 0.4 0
v -0.2 0.4 -0.1
v -0.2 0.5 0
v -0.2 0.5 -0.1
v -0.1 0.8 0.2
v -0.1 0.8 0.1
v -0.1 0.9 0.1
v -0.1 1 0.1
v -0.1 1.1 0.2
v -0.1 1.1 0.1
v 0 0 0.1
v 0 0 -0.1
v 0 0.1 0.1
v 0 0.1 0
v 0 0.2 0
v 0 0.2 -0.1
v 0 0.3 0
v 0 0.3 -0.1
v 0 0.8 -0.2
v 0 0.8 -0.3
v 0 0.9 -0.2
v 0 0.9 -0.3
v 0.1 0.9 0.2
v 0.1 0.9 0.1
v 0.1 1 0.2
v 0.1 1 0.1
v 0.2 1 0.2
v 0.2 1 0.1
v 0.2 1.1 0.2
v 0.2 1.1 0.1
v 0.2 1.1 -0.2
v 0.2 1.1 -0.3
v 0.2 1.2 -0.2
v 0.2 1.2 -0.3
v 0.3 0 0.1
v 0.3 0 -0.1
v 0.3 0.1 0.1
v 0.3 0.1 0
v 0.3 0.2 0
v 0.3 0.2 -0.1
v 0.3 0.3 0.1
v 0.3 0.3 0
v 0.3 0.3 -0.1
v 0.3 0.3 -0.2
v 0.3 0.4 0.1
v 0.3 0.4 -0.2
v 0.3 0.5 0.1
v 0.3 0.5 0
v 0.3 0.5 -0.1
v 0.3 0.5 -0.2
v 0.3 0.6 0.1
v 0.3 0.6 0
v 0.3 0.6 -0.1
v 0.3 0.6 -0.2
v 0.3 0.7 0.1
v 0.3 0.7 -0.1
v 0.3 0.7 -0.2
v 0.3 0.8 0.1
v 0.3 0.8 -0.1
v 0.3 0.8 -0.2
v 0.3 0.8 -0.3
v 0.3 0.9 -0.2
v 0.3 0.9 -0.3
v 0.3 1 0
v 0.3 1 -0.1
v 0.3 1 -0.2
v 0.3 1 -0.3
v 0.3 1.1 0.2
v 0.3 1.1 0
v 0.3 1.1 -0.1
v 0.3 1.1 -0.2
v 0.3 1.1 -0.3
v 0.3 1.2 0.2
v 0.3 1.2 0.1
v 0.3 1.2 0
v 0.3 1.2 -0.1
v 0.3 1.3 0.1
v 0.3 1.3 -0.2
v 0.4 0.5 0
v 0.4 0.5 -0.1
v 0.4 0.6 0
v 0.4 0.6 -0.1
v 0.4 0.8 0.2
v 0.4 0.8 -0.2
v 0.4 0.9 -0.2
v 0.4 0.9 -0.3
v 0.4 1 0
v 0.4 1 -0.1
v 0.4 1 -0.2
v 0.4 1 -0.3
v 0.4 1.1 0.2
v 0.4 1.1 0
v 0.4 1.1 -0.1
v 0.4 1.1 -0.2
v 0.4 1.2 0
v 0.4 1.2 -0.1
v 0.5 0.3 0
v 0.5 0.3 -0.1
v 0.5 0.5 0
v 0.5 0.5 -0.1
v -0.2 0.8 0.2
v -0.2 1.1 0.2
v -0.1 0.8 0.2
v -0.1 1.1 0.2
v -0.1 1.2 0.2
v 0 0.9 0.2
v 0 1.1 0.2
v 0.1 0.9 0.2
v 0.1 1 0.2
v 0.2 1 0.2
v 0.2 1.1 0.2
v 0.3 0.8 0.2
v 0.3 1.1 0.2
v 0.3 1.2 0.2
v 0.4 0.8 0.2
v 0.4 1.1 0.2
v -0.4 0.1 0.1
v -0.4 0.2 0.1
v -0.4 0.4 0.1
v -0.4 0.5 0.1
v -0.3 0.1 0.1
v -0.3 0.2 0.1
v -0.3 0.4 0.1
v -0.3 0.5 0.1
v -0.1 0 0.1
v -0.1 0.1 0.1
v -0.1 0.3 0.1
v -0.1 0.4 0.1
v -0.1 0.5 0.1
v -0.1 0.6 0.1
v -0.1 0.7 0.1
v -0.1 0.8 0.1
v -0.1 0.9 0.1
v -0.1 1 0.1
v -0.1 1.1 0.1
v -0.1 1.2 0.1
v -0.1 1.3 0.1
v 0 0 0.1
v 0 0.1 0.1
v 0 0.7 0.1
v 0 0.8 0.1
v 0 0.9 0.1
v 0 1 0.1
v 0 1.1 0.1
v 0.1 0.9 0.1
v 0.1 1 0.1
v 0.2 0 0.1
v 0.2 0.1 0.1
v 0.2 0.7 0.1
v 0.2 0.8 0.1
v 0.2 0.9 0.1
v 0.2 1 0.1
v 0.2 1.1 0.1
v 0.3 0 0.1
v 0.3 0.1 0.1
v 0.3 0.3 0.1
v 0.3 0.4 0.1
v 0.3 0.5 0.1
v 0.3 0.6 0.1
v 0.3 0.7 0.1
v 0.3 0.8 0.1
v 0.3 0.9 0.1
v 0.3 1 0.1
v 0.3 1.1 0.1
v 0.3 1.2 0.1
v 0.3 1.3 0.1
v -0.5 0.1 0
v -0.5 0.2 0
v -0.5 0.4 0
v -0.5 0.5 0
v -0.4 0.1 0
v -0.4 0.2 0
v -0.4 0.4 0
v -0.4 0.5 0
v -0.4 0.6 0
v -0.3 0.1 0
v -0.3 0.2 0
v -0.3 0.4 0
v -0.3 0.5 0
v -0.2 0.1 0
v -0.2 0.2 0
v -0.2 0.4 0
v -0.2 0.5 0
v -0.2 1.1 0
v -0.2 1.2 0
v -0.1 0.1 0
v -0.1 0.2 0
v -0.1 0.3 0
v -0.1 0.5 0
v -0.1 0.6 0
v -0.1 1.1 0
v -0.1 1.2 0
v 0 0.1 0
v 0 0.2 0
v 0 0.3 0
v 0.2 0.1 0
v 0.2 0.2 0
v 0.2 0.3 0
v 0.3 0.1 0
v 0.3 0.2 0
v 0.3 0.3 0
v 0.3 0.5 0
v 0.3 0.6 0
v 0.3 1.1 0
v 0.3 1.2 0
v 0.4 0.3 0
v 0.4 0.5 0
v 0.4 0.6 0
v 0.4 1.1 0
v 0.4 1.2 0
v 0.5 0.3 0
v 0.5 0.5 0
v -0.4 0.1 -0.1
v -0.4 0.2 -0.1
v -0.4 0.4 -0.1
v -0.3 0.1 -0.1
v -0.3 0.2 -0.1
v -0.3 0.4 -0.1
v -0.2 1 -0.1
v -0.2 1.1 -0.1
v -0.1 1 -0.1
v -0.1 1.1 -0.1
v 0.3 1 -0.1
v 0.3 1.1 -0.1
v 0.4 1 -0.1
v 0.4 1.1 -0.1
v -0.4 0.1 0
v -0.4 0.2 0
v -0.4 0.4 0
v -0.3 0.1 0
v -0.3 0.2 0
v -0.3 0.4 0
v -0.2 1 0
v -0.2 1.1 0
v -0.1 1 0
v -0.1 1.1 0
v 0.3 1 0
v 0.3 1.1 0
v 0.4 1 0
v 0.4 1.1 0
v -0.5 0.1 -0.1
v -0.5 0.2 -0.1
v -0.5 0.4 -0.1
v -0.5 0.5 -0.1
v -0.4 0.1 -0.1
v -0.4 0.2 -0.1
v -0.4 0.4 -0.1
v -0.4 0.5 -0.1
v -0.4 0.6 -0.1
v -0.3 0.1 -0.1
v -0.3 0.2 -0.1
v -0.3 0.4 -0.1
v -0.3 0.5 -0.1
v -0.2 0.1 -0.1
v -0.2 0.2 -0.1
v -0.2 0.4 -0.1
v -0.2 0.5 -0.1
v -0.2 1.1 -0.1
v -0.2 1.2 -0.1
v -0.1 0 -0.1
v -0.1 0.2 -0.1
v -0.1 0.3 -0.1
v -0.1 0.5 -0.1
v -0.1 0.6 -0.1
v -0.1 1.1 -0.1
v -0.1 1.2 -0.1
v 0 0 -0.1
v 0 0.2 -0.1
v 0 0.3 -0.1
v 0.2 0 -0.1
v 0.2 0.2 -0.1
v 0.2 0.3 -0.1
v 0.3 0 -0.1
v 0.3 0.2 -0.1
v 0.3 0.3 -0.1
v 0.3 0.5 -0.1
v 0.3 0.6 -0.1
v 0.3 1.1 -0.1
v 0.3 1.2 -0.1
v 0.4 0.3 -0.1
v 0.4 0.5 -0.1
v 0.4 0.6 -0.1
v 0.4 1.1 -0.1
v 0.4 1.2 -0.1
v 0.5 0.3 -0.1
v 0.5 0.5 -0.1
v -0.4 0.1 -0.2
v -0.4 0.2 -0.2
v -0.4 0.4 -0.2
v -0.4 0.5 -0.2
v -0.3 0.1 -0.2
v -0.3 0.2 -0.2
v -0.3 0.4 -0.2
v -0.3 0.5 -0.2
v -0.2 0.8 -0.2
v -0.2 0.9 -0.2
v -0.2 1 -0.2
v -0.2 1.1 -0.2
v -0.1 0.3 -0.2
v -0.1 0.4 -0.2
v -0.1 0.5 -0.2
v -0.1 0.6 -0.2
v -0.1 0.7 -0.2
v -0.1 0.8 -0.2
v -0.1 0.9 -0.2
v -0.1 1 -0.2
v -0.1 1.1 -0.2
v -0.1 1.3 -0.2
v 0 0.8 -0.2
v 0 0.9 -0.2
v 0 1.1 -0.2
v 0 1.2 -0.2
v 0.2 0.8 -0.2
v 0.2 0.9 -0.2
v 0.2 1.1 -0.2
v 0.2 1.2 -0.2
v 0.3 0.3 -0.2
v 0.3 0.4 -0.2
v 0.3 0.5 -0.2
v 0.3 0.6 -0.2
v 0.3 0.7 -0.2
v 0.3 0.8 -0.2
v 0.3 0.9 -0.2
v 0.3 1 -0.2
v 0.3 1.1 -0.2
v 0.3 1.3 -0.2
v 0.4 0.8 -0.2
v 0.4 0.9 -0.2
v 0.4 1 -0.2
v 0.4 1.1 -0.2
v -0.2 0.9 -0.3
v -0.2 1 -0.3
v -0.1 0.8 -0.3
v -0.1 0.9 -0.3
v -0.1 1 -0.3
v -0.1 1.1 -0.3
v 0 0.8 -0.3
v 0 0.9 -0.3
v 0 1.1 -0.3
v 0 1.2 -0.3
v 0.2 0.8 -0.3
v 0.2 0.9 -0.3
v 0.2 1.1 -0.3
v 0.2 1.2 -0.3
v 0.3 0.8 -0.3
v 0.3 0.9 -0.3
v 0.3 1 -0.3
v 0.3 1.1 -0.3
v 0.4 0.9 -0.3
v 0.4 1 -0.3
v -0.1 0 0.1
v 0 0 0.1
v 0.2 0 0.1
v 0.3 0 0.1
v -0.1 0 -0.1
v 0 0 -0.1
v 0.2 0 -0.1
v 0.3 0 -0.1
v -0.4 0.1 0.1
v -0.3 0.1 0.1
v -0.5 0.1 0
v -0.4 0.1 0
v -0.3 0.1 0
v -0.2 0.1 0
v -0.5 0.1 -0.1
v -0.4 0.1 -0.1
v -0.3 0.1 -0.1
v -0.2 0.1 -0.1
v -0.4 0.1 -0.2
v -0.3 0.1 -0.2
v -0.1 0.3 0.1
v 0.3 0.3 0.1
v -0.1 0.3 0
v 0 0.3 0
v 0.2 0.3 0
v 0.3 0.3 0
v 0.4 0.3 0
v 0.5 0.3 0
v -0.1 0.3 -0.1
v 0 0.3 -0.1
v 0.2 0.3 -0.1
v 0.3 0.3 -0.1
v 0.4 0.3 -0.1
v 0.5 0.3 -0.1
v -0.1 0.3 -0.2
v 0.3 0.3 -0.2
v -0.4 0.4 0
v -0.3 0.4 0
v -0.4 0.4 -0.1
v -0.3 0.4 -0.1
v -0.2 0.5 0
v -0.1 0.5 0
v 0.3 0.5 0
v 0.4 0.5 0
v -0.2 0.5 -0.1
v -0.1 0.5 -0.1
v 0.3 0.5 -0.1
v 0.4 0.5 -0.1
v -0.2 0.8 0.2
v -0.1 0.8 0.2
v 0.3 0.8 0.2
v 0.4 0.8 0.2
v -0.1 0.8 0.1
v 0.3 0.8 0.1
v -0.1 0.8 -0.1
v 0.3 0.8 -0.1
v -0.2 0.8 -0.2
v -0.1 0.8 -0.2
v 0 0.8 -0.2
v 0.2 0.8 -0.2
v 0.3 0.8 -0.2
v 0.4 0.8 -0.2
v -0.1 0.8 -0.3
v 0 0.8 -0.3
v 0.2 0.8 -0.3
v 0.3 0.8 -0.3
v 0 0.9 0.2
v 0.1 0.9 0.2
v 0 0.9 0.1
v 0.1 0.9 0.1
v -0.2 0.9 -0.2
v -0.1 0.9 -0.2
v 0 0.9 -0.2
v 0.2 0.9 -0.2
v 0.3 0.9 -0.2
v 0.4 0.9 -0.2
v -0.2 0.9 -0.3
v -0.1 0.9 -0.3
v 0 0.9 -0.3
v 0.2 0.9 -0.3
v 0.3 0.9 -0.3
v 0.4 0.9 -0.3
v 0.1 1 0.2
v 0.2 1 0.2
v 0.1 1 0.1
v 0.2 1 0.1
v -0.1 1.1 0.2
v 0 1.1 0.2
v 0.2 1.1 0.2
v 0.3 1.1 0.2
v -0.1 1.1 0.1
v 0 1.1 0.1
v 0.2 1.1 0.1
v 0.3 1.1 0.1
v -0.2 1.1 0
v -0.1 1.1 0
v 0.3 1.1 0
v 0.4 1.1 0
v -0.2 1.1 -0.1
v -0.1 1.1 -0.1
v 0.3 1.1 -0.1
v 0.4 1.1 -0.1
v -0.1 0.1 0.1
v 0 0.1 0.1
v 0.2 0.1 0.1
v 0.3 0.1 0.1
v -0.1 0.1 0
v 0 0.1 0
v 0.2 0.1 0
v 0.3 0.1 0
v -0.4 0.5 0.1
v -0.3 0.5 0.1
v -0.5 0.5 0
v -0.4 0.5 0
v -0.3 0.5 0
v 0.4 0.5 0
v 0.5 0.5 0
v -0.5 0.5 -0.1
v -0.4 0.5 -0.1
v -0.3 0.5 -0.1
v 0.4 0.5 -0.1
v 0.5 0.5 -0.1
v -0.4 0.5 -0.2
v -0.3 0.5 -0.2
v -0.4 0.6 0
v -0.1 0.6 0
v 0.3 0.6 0
v 0.4 0.6 0
v -0.4 0.6 -0.1
v -0.1 0.6 -0.1
v 0.3 0.6 -0.1
v 0.4 0.6 -0.1
v -0.2 1 0
v -0.1 1 0
v 0.3 1 0
v 0.4 1 0
v -0.2 1 -0.1
v -0.1 1 -0.1
v 0.3 1 -0.1
v 0.4 1 -0.1
v -0.2 1 -0.2
v -0.1 1 -0.2
v 0.3 1 -0.2
v 0.4 1 -0.2
v -0.2 1 -0.3
v -0.1 1 -0.3
v 0.3 1 -0.3
v 0.4 1 -0.3
v -0.2 1.1 0.2
v -0.1 1.1 0.2
v 0.3 1.1 0.2
v 0.4 1.1 0.2
v -0.2 1.1 0
v -0.1 1.1 0
v 0.3 1.1 0
v 0.4 1.1 0
v -0.2 1.1 -0.1
v -0.1 1.1 -0.1
v 0.3 1.1 -0.1
v 0.4 1.1 -0.1
v -0.2 1.1 -0.2
v -0.1 1.1 -0.2
v 0 1.1 -0.2
v 0.2 1.1 -0.2
v 0.3 1.1 -0.2
v 0.4 1.1 -0.2
v -0.1 1.1 -0.3
v 0 1.1 -0.3
v 0.2 1.1 -0.3
v 0.3 1.1 -0.3
v -0.1 1.2 0.2
v 0.3 1.2 0.2
v -0.1 1.2 0.1
v 0.3 1.2 0.1
v -0.2 1.2 0
v -0.1 1.2 0
v 0.3 1.2 0
v 0.4 1.2 0
v -0.2 1.2 -0.1
v -0.1 1.2 -0.1
v 0.3 1.2 -0.1
v 0.4 1.2 -0.1
v 0 1.2 -0.2
v 0.2 1.2 -0.2
v 0 1.2 -0.3
v 0.2 1.2 -0.3
v -0.1 1.3 0.1
v 0.3 1.3 0.1
v -0.1 1.3 -0.2
v 0.3 1.3 -0.2

# faces
f 3/9/1 2/9/1 1/9/1
f 4/9/1 2/9/1 3/9/1
f 5/1/1 4/1/1 3/1/1
f 6/1/1 4/1/1 5/1/1
f 7/9/1 6/9/1 5/9/1
f 8/9/1 6/9/1 7/9/1
f 13/9/1 10/9/1 9/9/1
f 14/9/1 10/9/1 13/9/1
f 15/9/1 12/9/1 11/9/1
f 16/9/1 12/9/1 15/9/1
f 17/1/1 14/1/1 13/1/1
f 18/1/1 14/1/1 17/1/1
f 19/1/1 16/1/1 15/1/1
f 20/1/1 16/1/1 19/1/1
f 21/9/1 18/9/1 17/9/1
f 22/9/1 18/9/1 21/9/1
f 23/9/1 20/9/1 19/9/1
f 24/9/1 20/9/1 23/9/1
f 25/2/1 23/2/1 22/2/1
f 26/2/1 23/2/1 25/2/1
f 29/9/1 28/9/1 27/9/1
f 30/9/1 28/9/1 29/9/1
f 31/1/1 30/1/1 29/1/1
f 32/1/1 30/1/1 31/1/1
f 35/6/1 34/6/1 33/6/1
f 37/6/1 35/6/1 33/6/1
f 37/6/1 36/6/1 35/6/1
f 38/6/1 36/6/1 37/6/1
f 39/6/1 36/6/1 38/6/1
f 40/6/1 36/6/1 39/6/1
f 41/6/1 37/6/1 33/6/1
f 42/6/1 37/6/1 41/6/1
f 43/6/1 39/6/1 38/6/1
f 44/6/1 39/6/1 43/6/1
f 45/6/1 43/6/1 42/6/1
f 46/6/1 43/6/1 45/6/1
f 49/6/1 48/6/1 47/6/1
f 50/6/1 48/6/1 49/6/1
f 51/6/1 48/6/1 50/6/1
f 52/6/1 48/6/1 51/6/1
f 54/2/1 52/2/1 51/2/1
f 55/2/1 52/2/1 54/2/1
f 57/7/1 55/7/1 54/7/1
f 57/7/1 56/7/1 55/7/1
f 57/7/1 54/7/1 53/7/1
f 58/7/1 56/7/1 57/7/1
f 59/8/1 58/8/1 57/8/1
f 60/8/1 58/8/1 59/8/1
f 61/8/1 58/8/1 60/8/1
f 62/8/1 58/8/1 61/8/1
f 63/7/1 60/7/1 59/7/1
f 64/7/1 60/7/1 63/7/1
f 65/7/1 62/7/1 61/7/1
f 66/7/1 62/7/1 65/7/1
f 67/8/1 64/8/1 63/8/1
f 67/8/1 65/8/1 64/8/1
f 67/8/1 66/8/1 65/8/1
f 68/8/1 66/8/1 67/8/1
f 69/8/1 66/8/1 68/8/1
f 70/2/1 68/2/1 67/2/1
f 71/6/1 69/6/1 68/6/1
f 71/2/1 68/2/1 70/2/1
f 72/6/1 69/6/1 71/6/1
f 74/6/1 73/6/1 72/6/1
f 75/6/1 73/6/1 74/6/1
f 81/6/1 77/6/1 76/6/1
f 82/6/1 77/6/1 81/6/1
f 83/6/1 79/6/1 78/6/1
f 84/6/1 79/6/1 83/6/1
f 85/6/1 81/6/1 80/6/1
f 86/6/1 81/6/1 85/6/1
f 87/6/1 81/6/1 86/6/1
f 88/6/1 83/6/1 82/6/1
f 89/6/1 87/6/1 86/6/1
f 89/6/1 88/6/1 87/6/1
f 90/6/1 83/6/1 88/6/1
f 90/6/1 88/6/1 89/6/1
f 93/6/1 92/6/1 91/6/1
f 94/6/1 93/6/1 91/6/1
f 95/6/1 93/6/1 94/6/1
f 98/6/1 97/6/1 96/6/1
f 99/6/1 97/6/1 98/6/1
f 102/6/1 101/6/1 100/6/1
f 103/6/1 101/6/1 102/6/1
f 104/6/1 101/6/1 103/6/1
f 105/6/1 101/6/1 104/6/1
f 106/2/1 105/2/1 104/2/1
f 107/2/1 105/2/1 106/2/1
f 110/6/1 109/6/1 108/6/1
f 111/6/1 109/6/1 110/6/1
f 114/6/1 113/6/1 112/6/1
f 115/6/1 114/6/1 112/6/1
f 116/6/1 115/6/1 112/6/1
f 117/6/1 115/6/1 116/6/1
f 120/2/1 119/2/1 118/2/1
f 121/2/1 119/2/1 120/2/1
f 122/9/2 123/9/2 124/9/2
f 124/9/2 123/9/2 125/9/2
f 124/1/2 125/1/2 126/1/2
f 126/1/2 125/1/2 127/1/2
f 128/9/2 129/9/2 132/9/2
f 132/9/2 129/9/2 133/9/2
f 130/9/2 131/9/2 134/9/2
f 134/9/2 131/9/2 135/9/2
f 132/1/2 133/1/2 136/1/2
f 136/1/2 133/1/2 137/1/2
f 134/1/2 135/1/2 138/1/2
f 138/1/2 135/1/2 139/1/2
f 136/9/2 137/9/2 140/9/2
f 140/9/2 137/9/2 141/9/2
f 138/9/2 139/9/2 142/9/2
f 142/9/2 139/9/2 143/9/2
f 144/9/2 145/9/2 146/9/2
f 146/9/2 145/9/2 147/9/2
f 146/1/2 147/1/2 148/1/2
f 148/1/2 147/1/2 149/1/2
f 148/9/2 149/9/2 150/9/2
f 150/9/2 149/9/2 151/9/2
f 152/6/2 153/6/2 154/6/2
f 152/6/2 154/6/2 155/6/2
f 152/6/2 155/6/2 156/6/2
f 156/6/2 155/6/2 157/6/2
f 158/6/2 159/6/2 160/6/2
f 160/6/2 159/6/2 161/6/2
f 161/6/2 159/6/2 162/6/2
f 162/6/2 159/6/2 163/6/2
f 162/2/2 163/2/2 164/2/2
f 164/2/2 163/2/2 165/2/2
f 166/6/2 167/6/2 168/6/2
f 168/6/2 167/6/2 169/6/2
f 170/6/2 171/6/2 172/6/2
f 172/6/2 171/6/2 173/6/2
f 174/6/2 175/6/2 176/6/2
f 176/6/2 175/6/2 177/6/2
f 178/6/2 179/6/2 180/6/2
f 180/6/2 179/6/2 181/6/2
f 182/6/2 183/6/2 184/6/2
f 184/6/2 183/6/2 185/6/2
f 185/6/2 183/6/2 186/6/2
f 186/6/2 183/6/2 187/6/2
f 186/2/2 187/2/2 189/2/2
f 189/2/2 187/2/2 190/2/2
f 189/7/2 190/7/2 192/7/2
f 190/7/2 191/7/2 192/7/2
f 188/7/2 189/7/2 192/7/2
f 192/7/2 191/7/2 193/7/2
f 192/8/2 193/8/2 194/8/2
f 194/8/2 193/8/2 195/8/2
f 195/8/2 193/8/2 196/8/2
f 196/8/2 193/8/2 197/8/2
f 194/7/2 195/7/2 198/7/2
f 198/7/2 195/7/2 199/7/2
f 196/7/2 197/7/2 200/7/2
f 200/7/2 197/7/2 201/7/2
f 198/8/2 199/8/2 202/8/2
f 199/8/2 200/8/2 202/8/2
f 200/8/2 201/8/2 202/8/2
f 202/8/2 201/8/2 203/8/2
f 203/8/2 201/8/2 204/8/2
f 202/2/2 203/2/2 205/2/2
f 203/6/2 204/6/2 206/6/2
f 205/2/2 203/2/2 206/2/2
f 206/6/2 204/6/2 207/6/2
f 207/6/2 208/6/2 209/6/2
f 209/6/2 208/6/2 210/6/2
f 211/6/2 212/6/2 216/6/2
f 216/6/2 212/6/2 217/6/2
f 213/6/2 214/6/2 218/6/2
f 218/6/2 214/6/2 219/6/2
f 215/6/2 216/6/2 220/6/2
f 220/6/2 216/6/2 221/6/2
f 221/6/2 216/6/2 222/6/2
f 217/6/2 218/6/2 223/6/2
f 221/6/2 222/6/2 224/6/2
f 222/6/2 223/6/2 224/6/2
f 223/6/2 218/6/2 225/6/2
f 224/6/2 223/6/2 225/6/2
f 226/2/2 227/2/2 228/2/2
f 228/2/2 227/2/2 229/2/2
f 230/6/2 231/6/2 232/6/2
f 230/6/2 232/6/2 234/6/2
f 232/6/2 233/6/2 234/6/2
f 234/6/2 233/6/2 235/6/2
f 235/6/2 233/6/2 236/6/2
f 236/6/2 233/6/2 237/6/2
f 230/6/2 234/6/2 238/6/2
f 238/6/2 234/6/2 239/6/2
f 235/6/2 236/6/2 240/6/2
f 240/6/2 236/6/2 241/6/2
f 239/6/2 240/6/2 242/6/2
f 242/6/2 240/6/2 243/6/2
f 244/2/2 245/2/2 246/2/2
f 246/2/2 245/2/2 247/2/2
f 250/6/3 249/6/3 248/6/3
f 251/6/3 249/6/3 250/6/3
f 254/6/3 252/6/3 251/6/3
f 255/6/3 254/6/3 253/6/3
f 256/6/3 254/6/3 255/6/3
f 257/6/3 254/6/3 256/6/3
f 258/6/3 252/6/3 254/6/3
f 258/6/3 254/6/3 257/6/3
f 260/6/3 252/6/3 258/6/3
f 261/6/3 252/6/3 260/6/3
f 262/6/3 260/6/3 259/6/3
f 263/6/3 260/6/3 262/6/3
f 268/9/3 265/9/3 264/9/3
f 269/1/3 266/1/3 265/1/3
f 269/9/3 265/9/3 268/9/3
f 270/9/3 267/9/3 266/9/3
f 270/1/3 266/1/3 269/1/3
f 271/9/3 267/9/3 270/9/3
f 285/6/3 273/6/3 272/6/3
f 286/6/3 273/6/3 285/6/3
f 287/8/3 278/8/3 277/8/3
f 287/2/3 279/2/3 278/2/3
f 288/9/3 280/9/3 279/9/3
f 288/2/3 279/2/3 287/2/3
f 289/2/3 281/2/3 280/2/3
f 289/9/3 280/9/3 288/9/3
f 290/6/3 282/6/3 281/6/3
f 290/2/3 281/2/3 289/2/3
f 291/6/3 282/6/3 290/6/3
f 292/2/3 289/2/3 288/2/3
f 296/8/3 287/8/3 277/8/3
f 296/3/3 288/3/3 287/3/3
f 297/2/3 293/2/3 292/2/3
f 297/3/3 288/3/3 296/3/3
f 297/2/3 292/2/3 288/2/3
f 298/2/3 293/2/3 297/2/3
f 299/2/3 293/2/3 298/2/3
f 301/6/3 295/6/3 294/6/3
f 302/6/3 295/6/3 301/6/3
f 303/7/3 275/7/3 274/7/3
f 304/8/3 276/8/3 275/8/3
f 304/7/3 275/7/3 303/7/3
f 305/7/3 277/7/3 276/7/3
f 305/8/3 276/8/3 304/8/3
f 306/8/3 296/8/3 277/8/3
f 306/7/3 277/7/3 305/7/3
f 307/2/3 297/2/3 296/2/3
f 307/8/3 296/8/3 306/8/3
f 308/9/3 298/9/3 297/9/3
f 308/2/3 297/2/3 307/2/3
f 309/2/3 299/2/3 298/2/3
f 309/9/3 298/9/3 308/9/3
f 310/6/3 300/6/3 299/6/3
f 310/2/3 299/2/3 309/2/3
f 311/6/3 300/6/3 310/6/3
f 312/6/3 284/6/3 283/6/3
f 313/6/3 284/6/3 312/6/3
f 318/9/3 315/9/3 314/9/3
f 319/1/3 316/1/3 315/1/3
f 319/9/3 315/9/3 318/9/3
f 320/9/3 317/9/3 316/9/3
f 320/1/3 316/1/3 319/1/3
f 321/9/3 317/9/3 320/9/3
f 326/2/3 322/2/3 321/2/3
f 327/9/3 324/9/3 323/9/3
f 328/1/3 325/1/3 324/1/3
f 328/9/3 324/9/3 327/9/3
f 329/9/3 326/9/3 325/9/3
f 329/1/3 325/1/3 328/1/3
f 330/2/3 322/2/3 326/2/3
f 330/9/3 326/9/3 329/9/3
f 336/2/3 322/2/3 330/2/3
f 337/2/3 322/2/3 336/2/3
f 338/6/3 332/6/3 331/6/3
f 339/6/3 332/6/3 338/6/3
f 340/6/3 334/6/3 333/6/3
f 341/2/3 335/2/3 334/2/3
f 341/6/3 334/6/3 340/6/3
f 342/2/3 335/2/3 341/2/3
f 346/6/3 344/6/3 343/6/3
f 347/2/3 345/2/3 344/2/3
f 347/6/3 344/6/3 346/6/3
f 348/2/3 345/2/3 347/2/3
f 354/2/3 350/2/3 349/2/3
f 355/2/3 350/2/3 354/2/3
f 356/6/3 352/6/3 351/6/3
f 357/6/3 352/6/3 356/6/3
f 358/2/3 354/2/3 353/2/3
f 359/2/3 354/2/3 358/2/3
f 363/9/3 361/9/3 360/9/3
f 364/1/3 362/1/3 361/1/3
f 364/9/3 361/9/3 363/9/3
f 365/1/3 362/1/3 364/1/3
f 368/6/3 367/6/3 366/6/3
f 369/6/3 367/6/3 368/6/3
f 372/6/3 371/6/3 370/6/3
f 373/6/3 371/6/3 372/6/3
f 374/9/4 375/9/4 377/9/4
f 375/1/4 376/1/4 378/1/4
f 377/9/4 375/9/4 378/9/4
f 378/1/4 376/1/4 379/1/4
f 380/6/4 381/6/4 382/6/4
f 382/6/4 381/6/4 383/6/4
f 384/6/4 385/6/4 386/6/4
f 386/6/4 385/6/4 387/6/4
f 388/9/4 389/9/4 392/9/4
f 389/1/4 390/1/4 393/1/4
f 392/9/4 389/9/4 393/9/4
f 390/9/4 391/9/4 394/9/4
f 393/1/4 390/1/4 394/1/4
f 394/9/4 391/9/4 395/9/4
f 395/2/4 396/2/4 400/2/4
f 397/9/4 398/9/4 401/9/4
f 398/1/4 399/1/4 402/1/4
f 401/9/4 398/9/4 402/9/4
f 399/9/4 400/9/4 403/9/4
f 402/1/4 399/1/4 403/1/4
f 400/2/4 396/2/4 404/2/4
f 403/9/4 400/9/4 404/9/4
f 404/2/4 396/2/4 410/2/4
f 410/2/4 396/2/4 411/2/4
f 405/6/4 406/6/4 412/6/4
f 412/6/4 406/6/4 413/6/4
f 407/6/4 408/6/4 414/6/4
f 408/2/4 409/2/4 415/2/4
f 414/6/4 408/6/4 415/6/4
f 415/2/4 409/2/4 416/2/4
f 417/6/4 418/6/4 420/6/4
f 418/2/4 419/2/4 421/2/4
f 420/6/4 418/6/4 421/6/4
f 421/2/4 419/2/4 422/2/4
f 423/2/4 424/2/4 428/2/4
f 428/2/4 424/2/4 429/2/4
f 425/6/4 426/6/4 430/6/4
f 430/6/4 426/6/4 431/6/4
f 427/2/4 428/2/4 432/2/4
f 432/2/4 428/2/4 433/2/4
f 434/9/4 435/9/4 438/9/4
f 435/1/4 436/1/4 439/1/4
f 438/9/4 435/9/4 439/9/4
f 436/9/4 437/9/4 440/9/4
f 439/1/4 436/1/4 440/1/4
f 440/9/4 437/9/4 441/9/4
f 442/6/4 443/6/4 451/6/4
f 451/6/4 443/6/4 452/6/4
f 444/6/4 445/6/4 453/6/4
f 453/6/4 445/6/4 454/6/4
f 450/6/4 451/6/4 456/6/4
f 454/6/4 455/6/4 458/6/4
f 458/6/4 455/6/4 459/6/4
f 456/6/4 457/6/4 460/6/4
f 450/6/4 456/6/4 460/6/4
f 460/6/4 457/6/4 461/6/4
f 459/6/4 455/6/4 463/6/4
f 446/7/4 447/7/4 464/7/4
f 447/8/4 448/8/4 465/8/4
f 464/7/4 447/7/4 465/7/4
f 448/7/4 449/7/4 466/7/4
f 465/8/4 448/8/4 466/8/4
f 449/8/4 450/8/4 467/8/4
f 466/7/4 449/7/4 467/7/4
f 450/6/4 460/6/4 468/6/4
f 467/8/4 450/8/4 468/8/4
f 468/6/4 460/6/4 469/6/4
f 462/6/4 463/6/4 472/6/4
f 463/6/4 455/6/4 473/6/4
f 472/6/4 463/6/4 473/6/4
f 469/6/4 470/6/4 474/6/4
f 474/6/4 470/6/4 475/6/4
f 471/6/4 472/6/4 476/6/4
f 476/6/4 472/6/4 477/6/4
f 478/6/4 479/6/4 481/6/4
f 481/6/4 479/6/4 482/6/4
f 480/6/4 481/6/4 484/6/4
f 482/6/4 483/6/4 484/6/4
f 481/6/4 482/6/4 484/6/4
f 484/6/4 483/6/4 485/6/4
f 485/6/4 483/6/4 486/6/4
f 486/6/4 487/6/4 489/6/4
f 485/6/4 486/6/4 489/6/4
f 489/6/4 487/6/4 490/6/4
f 490/6/4 487/6/4 491/6/4
f 488/6/4 489/6/4 492/6/4
f 489/6/4 490/6/4 492/6/4
f 492/6/4 490/6/4 493/6/4
f 493/6/4 490/6/4 494/6/4
f 494/6/4 490/6/4 495/6/4
f 493/6/4 494/6/4 496/6/4
f 496/6/4 494/6/4 497/6/4
f 502/6/5 499/6/5 498/6/5
f 503/6/5 499/6/5 502/6/5
f 504/6/5 501/6/5 500/6/5
f 505/6/5 501/6/5 504/6/5
f 509/9/5 507/9/5 506/9/5
f 510/9/5 507/9/5 509/9/5
f 512/9/5 509/9/5 508/9/5
f 513/9/5 509/9/5 512/9/5
f 514/9/5 511/9/5 510/9/5
f 515/9/5 511/9/5 514/9/5
f 516/9/5 514/9/5 513/9/5
f 517/9/5 514/9/5 516/9/5
f 520/7/5 519/7/5 518/7/5
f 521/7/5 519/7/5 520/7/5
f 522/7/5 519/7/5 521/7/5
f 523/7/5 519/7/5 522/7/5
f 527/8/5 522/8/5 521/8/5
f 528/8/5 522/8/5 527/8/5
f 530/2/5 525/2/5 524/2/5
f 531/2/5 525/2/5 530/2/5
f 532/7/5 529/7/5 528/7/5
f 532/7/5 527/7/5 526/7/5
f 532/7/5 528/7/5 527/7/5
f 533/7/5 529/7/5 532/7/5
f 536/9/5 535/9/5 534/9/5
f 537/9/5 535/9/5 536/9/5
f 542/2/5 539/2/5 538/2/5
f 543/2/5 539/2/5 542/2/5
f 544/2/5 541/2/5 540/2/5
f 545/2/5 541/2/5 544/2/5
f 550/6/5 547/6/5 546/6/5
f 551/6/5 549/6/5 548/6/5
f 552/6/5 550/6/5 546/6/5
f 553/6/5 549/6/5 551/6/5
f 554/6/5 552/6/5 546/6/5
f 555/6/5 552/6/5 554/6/5
f 558/6/5 549/6/5 553/6/5
f 559/6/5 549/6/5 558/6/5
f 560/6/5 556/6/5 555/6/5
f 561/6/5 556/6/5 560/6/5
f 562/6/5 558/6/5 557/6/5
f 563/6/5 558/6/5 562/6/5
f 566/6/5 565/6/5 564/6/5
f 567/6/5 565/6/5 566/6/5
f 574/6/5 569/6/5 568/6/5
f 575/6/5 569/6/5 574/6/5
f 576/6/5 571/6/5 570/6/5
f 577/6/5 571/6/5 576/6/5
f 578/6/5 573/6/5 572/6/5
f 579/6/5 573/6/5 578/6/5
f 582/6/5 581/6/5 580/6/5
f 583/6/5 581/6/5 582/6/5
f 588/6/5 585/6/5 584/6/5
f 589/6/5 585/6/5 588/6/5
f 590/6/5 587/6/5 586/6/5
f 591/6/5 587/6/5 590/6/5
f 596/6/5 593/6/5 592/6/5
f 597/6/5 593/6/5 596/6/5
f 598/6/5 595/6/5 594/6/5
f 599/6/5 595/6/5 598/6/5
f 600/6/6 601/6/6 604/6/6
f 604/6/6 601/6/6 605/6/6
f 602/6/6 603/6/6 606/6/6
f 606/6/6 603/6/6 607/6/6
f 608/9/6 609/9/6 611/9/6
f 611/9/6 609/9/6 612/9/6
f 610/9/6 611/9/6 615/9/6
f 615/9/6 611/9/6 616/9/6
f 613/2/6 614/2/6 618/2/6
f 618/2/6 614/2/6 619/2/6
f 616/9/6 617/9/6 620/9/6
f 620/9/6 617/9/6 621/9/6
f 622/2/6 623/2/6 626/2/6
f 626/2/6 623/2/6 627/2/6
f 624/2/6 625/2/6 628/2/6
f 628/2/6 625/2/6 629/2/6
f 630/6/6 631/6/6 634/6/6
f 634/6/6 631/6/6 635/6/6
f 632/6/6 633/6/6 636/6/6
f 636/6/6 633/6/6 637/6/6
f 638/6/6 639/6/6 642/6/6
f 642/6/6 639/6/6 643/6/6
f 640/6/6 641/6/6 644/6/6
f 644/6/6 641/6/6 645/6/6
f 646/6/6 647/6/6 650/6/6
f 650/6/6 647/6/6 651/6/6
f 648/6/6 649/6/6 652/6/6
f 652/6/6 649/6/6 653/6/6
f 654/6/6 655/6/6 658/6/6
f 658/6/6 655/6/6 659/6/6
f 656/6/6 657/6/6 662/6/6
f 662/6/6 657/6/6 663/6/6
f 659/6/6 660/6/6 664/6/6
f 664/6/6 660/6/6 665/6/6
f 661/6/6 662/6/6 666/6/6
f 666/6/6 662/6/6 667/6/6
f 668/6/6 669/6/6 670/6/6
f 670/6/6 669/6/6 671/6/6
f 672/6/6 673/6/6 676/6/6
f 676/6/6 673/6/6 677/6/6
f 674/6/6 675/6/6 678/6/6
f 678/6/6 675/6/6 679/6/6
f 680/6/6 681/6/6 682/6/6
f 682/6/6 681/6/6 683/6/6
f 684/6/6 685/6/6 686/6/6
f 686/6/6 685/6/6 687/6/6
